<?xml version="1.0" encoding="UTF-8"?>
<svg xmlns="http://www.w3.org/2000/svg" viewBox="0 0 1038.1148 1040.621">
  <defs>
    <style>
      .cls-1 {
        fill: #fff;
      }
    </style>
  </defs>
  <g id="Layer_1" data-name="Layer 1">
    <path class="cls-1" d="M358.622,756.2117h-88.3733c-19.5341,0-35.4251-15.892-35.4251-35.4261v-20.7484c0-19.5341,15.891-35.4261,35.4251-35.4261h48.7714v-12.3969h-84.1965v-39.6019h88.3713c19.5341,0,35.427,15.892,35.427,35.4261v108.1733ZM274.4255,716.6099h44.5946v-12.3969h-44.5946v12.3969Z"/>
    <path class="cls-1" d="M606.7029,857.01h-45.4402c-10.0441,0-18.215-8.1719-18.215-18.216v-10.668c0-10.0441,8.1709-18.216,18.215-18.216h25.0775v-6.3743h-43.2926v-20.3627h45.4392c10.0441,0,18.216,8.1719,18.216,18.216v55.621ZM563.4103,836.6473h22.9299v-6.3748h-22.9299v6.3748Z"/>
    <path class="cls-1" d="M505.1489,756.2117h-88.3733c-19.5341,0-35.4251-15.892-35.4251-35.4261v-72.7472c0-19.5341,15.891-35.4261,35.4251-35.4261h88.3733v39.6019h-84.1965v64.3956h84.1965v39.6019Z"/>
    <path class="cls-1" d="M656.6602,648.0478v108.1724h-39.6019v-104.0143h-44.5915v104.0143h-39.6019v-208.2662h39.6019v64.6501h48.7695c19.5438,0,35.4239,15.9001,35.4239,35.4437Z"/>
    <rect class="cls-1" x="678.1925" y="612.6124" width="39.6019" height="143.5993"/>
    <path class="cls-1" d="M866.4735,756.2117h-39.6019v-103.9975h-44.5946v103.9975h-39.6019v-143.5993h88.3713c19.5341,0,35.427,15.892,35.427,35.4261v108.1733Z"/>
    <path class="cls-1" d="M1013.0004,756.2117h-88.3733c-19.5341,0-35.4251-15.892-35.4251-35.4261v-72.7472c0-19.5341,15.891-35.4261,35.4251-35.4261h52.9462c19.5341,0,35.427,15.892,35.427,35.4261v20.7484c0,19.5341-15.893,35.4261-35.427,35.4261h-48.7695v12.3969h84.1965v39.6019ZM928.8039,664.6111h44.5946v-12.3969h-44.5946v12.3969Z"/>
    <path class="cls-1" d="M210.1097,583.3779v172.8423h-39.6019v-168.6644h-28.672v168.6644h-39.6019v-168.6644h-28.6519v168.6644h-39.6019v-208.2662h140.7053c19.5438,0,35.4241,15.9002,35.4241,35.4239Z"/>
    <rect class="cls-1" x="636.5331" y="897.012" width="39.6019" height="143.6003"/>
    <rect class="cls-1" x="277.2756" y="897.012" width="39.6019" height="143.6003"/>
    <path class="cls-1" d="M958.2557,1040.6123h-39.6019v-103.9984h-44.5946v103.9984h-39.6019v-143.6003h88.3501c19.5457,0,35.4483,15.9017,35.4483,35.4483v108.152Z"/>
    <path class="cls-1" d="M246.1051,867.7985v172.8225h-39.6019v-168.6644h-28.672v168.6644h-39.6019v-168.6644h-28.6519v168.6644h-39.6019v-208.2662h140.6855c19.5438,0,35.444,15.9002,35.444,35.4437Z"/>
    <path class="cls-1" d="M427.697,1040.6123h-88.3501v-39.6019h84.1965v-12.3969h-48.7482c-19.5457,0-35.4483-15.9017-35.4483-35.4483v-20.7049c0-19.5467,15.9026-35.4483,35.4483-35.4483h88.3501v39.6019h-84.1965v12.3978h48.7482c19.5457,0,35.4483,15.9017,35.4483,35.4483v20.704c0,19.5467-15.9026,35.4483-35.4483,35.4483Z"/>
    <path class="cls-1" d="M571.7275,1040.6123h-88.3501v-39.6019h84.1965v-12.3969h-48.7482c-19.5457,0-35.4483-15.9017-35.4483-35.4483v-20.7049c0-19.5467,15.9026-35.4483,35.4483-35.4483h88.3501v39.6019h-84.1965v12.3978h48.7482c19.5457,0,35.4483,15.9017,35.4483,35.4483v20.704c0,19.5467-15.9026,35.4483-35.4483,35.4483Z"/>
    <path class="cls-1" d="M782.9092,1040.6123h-52.9018c-19.5457,0-35.4483-15.9017-35.4483-35.4483v-72.7037c0-19.5467,15.9026-35.4483,35.4483-35.4483h52.9018c19.5457,0,35.4483,15.9017,35.4483,35.4483v72.7037c0,19.5467-15.9026,35.4483-35.4483,35.4483ZM734.161,1001.0105h44.5946v-64.3966h-44.5946v64.3966Z"/>
    <path class="cls-1" d="M478.595,857.01h-20.3627v-53.4744h-22.9299v53.4744h-20.3627v-73.8371h45.4283c10.0501,0,18.227,8.1764,18.227,18.227v55.6101Z"/>
    <path class="cls-1" d="M388.4345,857.01h-27.2013c-10.0501,0-18.227-8.1764-18.227-18.227v-37.3831c0-10.0506,8.1769-18.227,18.227-18.227h27.2013c10.0501,0,18.227,8.1764,18.227,18.227v37.3831c0,10.0506-8.1769,18.227-18.227,18.227ZM363.3689,836.6473h22.9299v-33.1117h-22.9299v33.1117Z"/>
    <rect class="cls-1" x="277.2754" y="832.3581" width="39.6019" height="39.6019"/>
    <rect class="cls-1" x="636.5333" y="832.3581" width="39.6019" height="39.6019"/>
    <rect class="cls-1" x="678.192" y="547.9575" width="39.6019" height="39.6019"/>
  </g>
  <g id="Layer_2" data-name="Layer 2">
    <path class="cls-1" d="M716.1888.0014v117.9556c-45.304,0-73.0871,20.6241-100.9881,65.7466-17.2759-36.9291-36.6297-76.5713-62.1173-112.8744C597.0719,23.8194,651.8849.0014,716.1888.0014Z"/>
    <path class="cls-1" d="M477.9095,425.4219c-43.3351,44.6326-96.9141,67.2438-159.4851,67.2438v-117.9556c43.3532,0,70.6191-18.9999,97.3769-60.4295,17.2215,36.6207,36.6297,75.6005,62.1082,111.1414Z"/>
    <path class="cls-1" d="M714.2237,492.6671c-67.7624,0-125.1196-26.5294-170.4792-78.8509-35.8528-41.3562-59.7753-92.7678-82.9105-142.4869-20.6312-44.3384-40.1184-86.2183-65.1835-115.1157-23.2593-26.8165-47.6758-38.258-81.643-38.258V0C381.8844,0,439.3332,26.5542,484.7579,78.9253c35.9157,41.4081,59.863,92.8719,83.0208,142.641,20.6103,44.2932,40.0776,86.1297,65.0927,114.9841,23.1888,26.7482,47.5181,38.161,81.3523,38.161v117.9556Z"/>
    <polygon class="cls-1" points="255.0298 492.6671 198.6146 492.6671 0 246.3338 198.6146 0 255.0298 0 255.0298 117.9556 151.5209 246.3338 255.0298 374.7115 255.0298 492.6671"/>
    <polygon class="cls-1" points="775.1633 492.6671 831.5786 492.6671 1030.1931 246.3338 831.5786 0 775.1633 0 775.1633 117.9556 878.6722 246.3338 775.1633 374.7115 775.1633 492.6671"/>
  </g>
</svg>