<?xml version="1.0" encoding="UTF-8"?>
<svg xmlns="http://www.w3.org/2000/svg" viewBox="0 0 2015.5958 482.3227">
  <defs>
    <style>
      .cls-1 {
        fill: #fff;
      }
    </style>
  </defs>
  <g id="Layer_1" data-name="Layer 1">
    <path class="cls-1" d="M1344.9021,212.6516h-90.2378c-19.9462,0-36.1725-16.2273-36.1725-36.1735v-21.1862c0-19.9462,16.2263-36.1735,36.1725-36.1735h49.8004v-12.6584h-85.9729v-40.4374h90.2358c19.9462,0,36.1745,16.2273,36.1745,36.1735v110.4555ZM1258.9292,172.2142h45.5355v-12.6584h-45.5355v12.6584Z"/>
    <path class="cls-1" d="M1588.8572,311.8429h-46.3989c-10.256,0-18.5994-8.3443-18.5994-18.6004v-10.8931c0-10.256,8.3433-18.6004,18.5994-18.6004h25.6066v-6.5088h-44.2059v-20.7923h46.3979c10.256,0,18.6004,8.3443,18.6004,18.6004v56.7945ZM1544.6513,291.0506h23.4137v-6.5093h-23.4137v6.5093Z"/>
    <path class="cls-1" d="M1496.2361,212.6516h-90.2378c-19.9462,0-36.1725-16.2273-36.1725-36.1735v-74.282c0-19.9462,16.2263-36.1735,36.1725-36.1735h90.2378v40.4374h-85.9729v65.7542h85.9729v40.4374Z"/>
    <path class="cls-1" d="M1647.5668,102.2056v110.4546h-40.4374v-106.2087h-45.5323v106.2087h-40.4374V0h40.4374v66.0141h49.7984c19.9561,0,36.1713,16.2355,36.1713,36.1915Z"/>
    <rect class="cls-1" x="1672.4905" y="66.0226" width="40.4374" height="146.629"/>
    <path class="cls-1" d="M1864.2619,212.6516h-40.4374v-106.1916h-45.5355v106.1916h-40.4374V66.0226h90.2358c19.9462,0,36.1745,16.2273,36.1745,36.1735v110.4555Z"/>
    <path class="cls-1" d="M2015.5958,212.6516h-90.2378c-19.9462,0-36.1725-16.2273-36.1725-36.1735v-74.282c0-19.9462,16.2263-36.1735,36.1725-36.1735h54.0633c19.9462,0,36.1745,16.2273,36.1745,36.1735v21.1862c0,19.9462-16.2283,36.1735-36.1745,36.1735h-49.7984v12.6584h85.9729v40.4374ZM1929.6229,119.1184h45.5355v-12.6584h-45.5355v12.6584Z"/>
    <path class="cls-1" d="M1193.5681,36.1713v176.489h-40.4374V40.4374h-29.2769v172.2228h-40.4374V40.4374h-29.2564v172.2228h-40.4374V0h143.6739c19.9561,0,36.1715,16.2357,36.1715,36.1713Z"/>
    <rect class="cls-1" x="1615.8023" y="335.6307" width="40.4374" height="146.63"/>
    <rect class="cls-1" x="1252.2145" y="335.6307" width="40.4374" height="146.63"/>
    <path class="cls-1" d="M1955.9469,482.2607h-40.4374v-106.1926h-45.5355v106.1926h-40.4374v-146.63h90.2141c19.9581,0,36.1962,16.2372,36.1962,36.1962v110.4338Z"/>
    <path class="cls-1" d="M1228.7713,305.8009v176.4687h-40.4374v-172.2228h-29.2769v172.2228h-40.4374v-172.2228h-29.2564v172.2228h-40.4374v-212.6602h143.6537c19.9561,0,36.1918,16.2357,36.1918,36.1915Z"/>
    <path class="cls-1" d="M1406.3093,482.2607h-90.2141v-40.4374h85.9729v-12.6584h-49.7767c-19.9581,0-36.1962-16.2372-36.1962-36.1962v-21.1418c0-19.9591,16.2381-36.1962,36.1962-36.1962h90.2141v40.4374h-85.9729v12.6594h49.7767c19.9581,0,36.1962,16.2372,36.1962,36.1962v21.1408c0,19.9591-16.2381,36.1962-36.1962,36.1962Z"/>
    <path class="cls-1" d="M1556.1629,482.2607h-90.2141v-40.4374h85.9729v-12.6584h-49.7767c-19.9581,0-36.1962-16.2372-36.1962-36.1962v-21.1418c0-19.9591,16.2381-36.1962,36.1962-36.1962h90.2141v40.4374h-85.9729v12.6594h49.7767c19.9581,0,36.1962,16.2372,36.1962,36.1962v21.1408c0,19.9591-16.2381,36.1962-36.1962,36.1962Z"/>
    <path class="cls-1" d="M1769.8971,482.2607h-54.0179c-19.9581,0-36.1962-16.2372-36.1962-36.1962v-74.2376c0-19.9591,16.2381-36.1962,36.1962-36.1962h54.0179c19.9581,0,36.1962,16.2372,36.1962,36.1962v74.2376c0,19.9591-16.2381,36.1962-36.1962,36.1962ZM1720.1204,441.8233h45.5355v-65.7552h-45.5355v65.7552Z"/>
    <path class="cls-1" d="M1458.0465,311.8429h-20.7923v-54.6026h-23.4137v54.6026h-20.7923v-75.3949h46.3867c10.2621,0,18.6115,8.3489,18.6115,18.6115v56.7834Z"/>
    <path class="cls-1" d="M1365.9838,311.8429h-27.7752c-10.2621,0-18.6115-8.3489-18.6115-18.6115v-38.1718c0-10.2626,8.3494-18.6115,18.6115-18.6115h27.7752c10.2621,0,18.6115,8.3489,18.6115,18.6115v38.1718c0,10.2626-8.3494,18.6115-18.6115,18.6115ZM1340.3894,291.0506h23.4137v-33.8103h-23.4137v33.8103Z"/>
    <rect class="cls-1" x="1252.2145" y="269.6127" width="40.4374" height="40.4374"/>
    <rect class="cls-1" x="1615.8023" y="270.7378" width="40.4374" height="40.4374"/>
    <rect class="cls-1" x="1672.4905" width="40.4374" height="40.4374"/>
  </g>
  <g id="Layer_2" data-name="Layer 2">
    <path class="cls-1" d="M701.1512,482.3213v-115.4789c-44.3528,0-71.5525-20.191-98.8677-64.3661-16.9132,36.1537-35.8606,74.9635-60.813,110.5044,43.0648,46.0228,96.7269,69.3406,159.6807,69.3406Z"/>
    <path class="cls-1" d="M467.875,65.8333C425.4498,22.1378,372.9957.0014,311.7386.0014v115.4789c42.443,0,69.1364,18.601,95.3323,59.1607,16.8599-35.8517,35.8606-74.0131,60.8041-108.8078Z"/>
    <path class="cls-1" d="M699.2274,0C632.8877,0,576.7349,25.9723,532.3277,77.1953c-35.1,40.4879-58.5202,90.8199-81.1697,139.4951-20.198,43.4074-39.276,84.408-63.8149,112.6986-22.7709,26.2534-46.6748,37.4547-79.9287,37.4547v115.4789c66.4516,0,122.6942-25.9966,167.1651-77.2682,35.1616-40.5386,58.6061-90.9219,81.2777-139.646,20.1776-43.3631,39.2361-84.3212,63.7259-112.5698,22.7019-26.1866,46.5203-37.3598,79.6442-37.3598V0Z"/>
    <polygon class="cls-1" points="249.675 0 194.4443 0 0 241.1611 194.4443 482.3227 249.675 482.3227 249.675 366.8438 148.3395 241.1611 249.675 115.4789 249.675 0"/>
    <polygon class="cls-1" points="758.8874 0 814.1182 0 1008.5625 241.1611 814.1182 482.3227 758.8874 482.3227 758.8875 366.8438 860.223 241.1611 758.8875 115.4789 758.8874 0"/>
  </g>
</svg>