<?xml version="1.0" encoding="UTF-8"?><svg xmlns="http://www.w3.org/2000/svg" viewBox="0 0 2095.3112 482.3227"><defs><style>.cls-1{fill:#fff;}</style></defs><g id="Layer_2"><path class="cls-1" d="M701.1512,482.3213v-115.4789c-44.3528,0-71.5525-20.191-98.8677-64.3661-16.9132,36.1537-35.8606,74.9635-60.813,110.5044,43.0648,46.0228,96.7269,69.3406,159.6807,69.3406Z"/><path class="cls-1" d="M467.875,65.8333C425.4498,22.1378,372.9957.0014,311.7386.0014v115.4789c42.443,0,69.1364,18.601,95.3323,59.1607,16.8599-35.8517,35.8606-74.0131,60.8041-108.8078Z"/><path class="cls-1" d="M699.2274,0C632.8877,0,576.7349,25.9723,532.3277,77.1953c-35.1,40.4879-58.5202,90.8199-81.1697,139.4951-20.198,43.4074-39.276,84.408-63.8149,112.6986-22.7709,26.2534-46.6748,37.4547-79.9287,37.4547v115.4789c66.4516,0,122.6942-25.9966,167.1651-77.2682,35.1616-40.5386,58.6061-90.9219,81.2777-139.646,20.1776-43.3631,39.2361-84.3212,63.7259-112.5698,22.7019-26.1866,46.5203-37.3598,79.6442-37.3598V0Z"/><polygon class="cls-1" points="249.675 0 194.4443 0 0 241.1611 194.4443 482.3227 249.675 482.3227 249.675 366.8438 148.3395 241.1611 249.675 115.4789 249.675 0"/><polygon class="cls-1" points="758.8874 0 814.1182 0 1008.5625 241.1611 814.1182 482.3227 758.8874 482.3227 758.8875 366.8438 860.223 241.1611 758.8875 115.4789 758.8874 0"/></g><g id="Layer_3"><path class="cls-1" d="M1133.7908,212.6516V44.8394h-22.2858v167.8122h-44.8388V0h134.2493c24.702,0,44.84,20.1374,44.84,44.8394v167.8122h-44.84V44.8394h-22.2858v167.8122h-44.8388Z"/><path class="cls-1" d="M1268.0472,56.1165h89.4105c24.702,0,44.8388,19.8691,44.8388,44.5711v111.964h-89.4105c-24.702,0-44.8388-20.1374-44.8388-44.8394v-11.0082c0-24.702,20.1368-44.8394,44.8388-44.8394h44.5717v-11.2771h-89.4105v-44.5711ZM1312.886,167.8122h44.5717v-11.0082h-44.5717v11.0082Z"/><path class="cls-1" d="M1558.8364,212.6516h-89.4105c-24.702,0-44.8388-20.1374-44.8388-44.8394v-67.1246c0-24.702,20.1368-44.5711,44.8388-44.5711h89.4105v44.5711h-89.4105v67.1246h89.4105v44.8394Z"/><path class="cls-1" d="M1670.5375,212.6516v-111.964h-44.5717v111.964h-44.8388V0h44.8388v56.1165h44.5717c24.702,0,44.8388,19.8691,44.8388,44.5711v111.964h-44.8388Z"/><path class="cls-1" d="M1737.6657,0h44.5705v44.8394h-44.5705V0ZM1782.2362,56.1165v156.5351h-44.5705V56.1165h44.5705Z"/><path class="cls-1" d="M1893.9325,212.6516v-111.964h-44.5717v111.964h-44.8388V56.1165h89.4105c24.702,0,44.8388,19.8691,44.8388,44.5711v111.964h-44.8388Z"/><path class="cls-1" d="M2095.3112,212.6516h-89.4105c-24.702,0-44.8388-20.1374-44.8388-44.8394v-67.1246c0-24.702,20.1368-44.5711,44.8388-44.5711h44.5717c24.702,0,44.8388,19.8691,44.8388,44.5711v11.2771c0,24.7014-20.1368,44.8394-44.8388,44.8394h-44.5717v11.0082h89.4105v44.8394ZM2050.4724,100.6876h-44.5717v11.2771h44.5717v-11.2771Z"/><path class="cls-1" d="M1410.8248,250.0607v38.1081c0,14.0238-11.4321,25.4563-25.4559,25.4563h-25.3043c-14.0238,0-25.4559-11.4324-25.4559-25.4563v-38.1081c0-14.0238,11.4321-25.3039,25.4559-25.3039h25.3043c14.0238,0,25.4559,11.2801,25.4559,25.3039ZM1360.0646,250.0607v38.1081h25.3043v-38.1081h-25.3043Z"/><path class="cls-1" d="M1474.2405,313.625v-63.5643h-25.3043v63.5643h-25.4559v-88.8682h50.7602c14.0238,0,25.4559,11.2801,25.4559,25.3039v63.5643h-25.4559Z"/><path class="cls-1" d="M1550.3056,224.7568h50.7602c14.0238,0,25.4559,11.2801,25.4559,25.3039v63.5643h-50.7602c-14.0238,0-25.4559-11.4324-25.4559-25.4563v-6.2496c0-14.0238,11.4321-25.4563,25.4559-25.4563h25.3043v-6.4022h-50.7602v-25.3039ZM1575.7616,288.1687h25.3043v-6.2496h-25.3043v6.2496Z"/><path class="cls-1" d="M1133.7908,482.2653v-167.8122h-22.2858v167.8122h-44.8388v-212.6516h134.2493c24.702,0,44.84,20.1374,44.84,44.8394v167.8122h-44.84v-167.8122h-22.2858v167.8122h-44.8388Z"/><path class="cls-1" d="M1268.0472,269.6137h44.5705v44.8394h-44.5705v-44.8394ZM1312.6177,325.7302v156.5351h-44.5705v-156.5351h44.5705Z"/><path class="cls-1" d="M1469.1528,370.3012h-89.4105v11.2771h44.5717c24.702,0,44.8388,20.1374,44.8388,44.8394v11.0082c0,24.702-20.1368,44.8394-44.8388,44.8394h-89.4105v-44.8394h89.4105v-11.0082h-44.5717c-24.702,0-44.8388-20.138-44.8388-44.8394v-11.2771c0-24.702,20.1368-44.5711,44.8388-44.5711h89.4105v44.5711Z"/><path class="cls-1" d="M1625.6915,370.3012h-89.4105v11.2771h44.5717c24.702,0,44.8388,20.1374,44.8388,44.8394v11.0082c0,24.702-20.1368,44.8394-44.8388,44.8394h-89.4105v-44.8394h89.4105v-11.0082h-44.5717c-24.702,0-44.8388-20.138-44.8388-44.8394v-11.2771c0-24.702,20.1368-44.5711,44.8388-44.5711h89.4105v44.5711Z"/><path class="cls-1" d="M1647.9797,269.6137h44.5705v44.8394h-44.5705v-44.8394ZM1692.5502,325.7302v156.5351h-44.5705v-156.5351h44.5705Z"/><path class="cls-1" d="M1849.0877,370.3012v67.1246c0,24.702-20.1368,44.8394-44.8388,44.8394h-44.5717c-24.702,0-44.8388-20.1374-44.8388-44.8394v-67.1246c0-24.702,20.1368-44.5711,44.8388-44.5711h44.5717c24.702,0,44.8388,19.8691,44.8388,44.5711ZM1759.6772,370.3012v67.1246h44.5717v-67.1246h-44.5717Z"/><path class="cls-1" d="M1960.7888,482.2653v-111.964h-44.5717v111.964h-44.8388v-156.5351h89.4105c24.702,0,44.8388,19.8691,44.8388,44.5711v111.964h-44.8388Z"/></g></svg>