<?xml version="1.0" encoding="UTF-8"?><svg xmlns="http://www.w3.org/2000/svg" viewBox="0 0 1030.1931 1002.7448"><defs><style>.cls-1{fill:#fff;}</style></defs><g id="Layer_2"><path class="cls-1" d="M67.8987,733.1311v-167.8122h-22.2858v167.8122H.7741v-212.6516h134.2493c24.702,0,44.84,20.1374,44.84,44.8394v167.8122h-44.84v-167.8122h-22.2858v167.8122h-44.8388Z"/><path class="cls-1" d="M202.1551,576.596h89.4105c24.702,0,44.8388,19.8691,44.8388,44.5711v111.964h-89.4105c-24.702,0-44.8388-20.1374-44.8388-44.8394v-11.0082c0-24.702,20.1368-44.8394,44.8388-44.8394h44.5717v-11.2771h-89.4105v-44.5711ZM246.994,688.2917h44.5717v-11.0082h-44.5717v11.0082Z"/><path class="cls-1" d="M492.9443,733.1311h-89.4105c-24.702,0-44.8388-20.1374-44.8388-44.8394v-67.1246c0-24.702,20.1368-44.5711,44.8388-44.5711h89.4105v44.5711h-89.4105v67.1246h89.4105v44.8394Z"/><path class="cls-1" d="M604.6454,733.1311v-111.964h-44.5717v111.964h-44.8388v-212.6516h44.8388v56.1165h44.5717c24.702,0,44.8388,19.8691,44.8388,44.5711v111.964h-44.8388Z"/><path class="cls-1" d="M671.7736,520.4795h44.5705v44.8394h-44.5705v-44.8394ZM716.3441,576.596v156.5351h-44.5705v-156.5351h44.5705Z"/><path class="cls-1" d="M828.0404,733.1311v-111.964h-44.5717v111.964h-44.8388v-156.5351h89.4105c24.702,0,44.8388,19.8691,44.8388,44.5711v111.964h-44.8388Z"/><path class="cls-1" d="M1029.4191,733.1311h-89.4105c-24.702,0-44.8388-20.1374-44.8388-44.8394v-67.1246c0-24.702,20.1368-44.5711,44.8388-44.5711h44.5717c24.702,0,44.8388,19.8691,44.8388,44.5711v11.2771c0,24.7014-20.1368,44.8394-44.8388,44.8394h-44.5717v11.0082h89.4105v44.8394ZM984.5803,621.1671h-44.5717v11.2771h44.5717v-11.2771Z"/><path class="cls-1" d="M389.7745,770.5402v38.1081c0,14.0238-11.4321,25.4563-25.4559,25.4563h-25.3043c-14.0238,0-25.4559-11.4324-25.4559-25.4563v-38.1081c0-14.0238,11.4321-25.3039,25.4559-25.3039h25.3043c14.0238,0,25.4559,11.2801,25.4559,25.3039ZM339.0143,770.5402v38.1081h25.3043v-38.1081h-25.3043Z"/><path class="cls-1" d="M453.1902,834.1046v-63.5643h-25.3043v63.5643h-25.4559v-88.8682h50.7602c14.0238,0,25.4559,11.2801,25.4559,25.3039v63.5643h-25.4559Z"/><path class="cls-1" d="M529.2553,745.2363h50.7602c14.0238,0,25.4559,11.2801,25.4559,25.3039v63.5643h-50.7602c-14.0238,0-25.4559-11.4324-25.4559-25.4563v-6.2496c0-14.0238,11.4321-25.4563,25.4559-25.4563h25.3043v-6.4022h-50.7602v-25.3039ZM554.7113,808.6483h25.3043v-6.2496h-25.3043v6.2496Z"/><path class="cls-1" d="M112.7405,1002.7448v-167.8122h-22.2858v167.8122h-44.8388v-212.6516h134.2493c24.702,0,44.84,20.1374,44.84,44.8394v167.8122h-44.84v-167.8122h-22.2858v167.8122h-44.8388Z"/><path class="cls-1" d="M246.9969,790.0932h44.5705v44.8394h-44.5705v-44.8394ZM291.5674,846.2097v156.5351h-44.5705v-156.5351h44.5705Z"/><path class="cls-1" d="M448.1025,890.7808h-89.4105v11.2771h44.5717c24.702,0,44.8388,20.1374,44.8388,44.8394v11.0082c0,24.702-20.1368,44.8394-44.8388,44.8394h-89.4105v-44.8394h89.4105v-11.0082h-44.5717c-24.702,0-44.8388-20.138-44.8388-44.8394v-11.2771c0-24.702,20.1368-44.5711,44.8388-44.5711h89.4105v44.5711Z"/><path class="cls-1" d="M604.6412,890.7808h-89.4105v11.2771h44.5717c24.702,0,44.8388,20.1374,44.8388,44.8394v11.0082c0,24.702-20.1368,44.8394-44.8388,44.8394h-89.4105v-44.8394h89.4105v-11.0082h-44.5717c-24.702,0-44.8388-20.138-44.8388-44.8394v-11.2771c0-24.702,20.1368-44.5711,44.8388-44.5711h89.4105v44.5711Z"/><path class="cls-1" d="M626.9294,790.0932h44.5705v44.8394h-44.5705v-44.8394ZM671.4999,846.2097v156.5351h-44.5705v-156.5351h44.5705Z"/><path class="cls-1" d="M828.0374,890.7808v67.1246c0,24.702-20.1368,44.8394-44.8388,44.8394h-44.5717c-24.702,0-44.8388-20.1374-44.8388-44.8394v-67.1246c0-24.702,20.1368-44.5711,44.8388-44.5711h44.5717c24.702,0,44.8388,19.8691,44.8388,44.5711ZM738.6269,890.7808v67.1246h44.5717v-67.1246h-44.5717Z"/><path class="cls-1" d="M939.7385,1002.7448v-111.964h-44.5717v111.964h-44.8388v-156.5351h89.4105c24.702,0,44.8388,19.8691,44.8388,44.5711v111.964h-44.8388Z"/></g><g id="Layer_3"><path class="cls-1" d="M314.0043.0014v117.9556c45.304,0,73.0871,20.6241,100.9881,65.7466,17.2759-36.9291,36.6297-76.5713,62.1173-112.8744C433.1213,23.8194,378.3082.0014,314.0043.0014Z"/><path class="cls-1" d="M552.2837,425.4219c43.3351,44.6326,96.9141,67.2438,159.4851,67.2438v-117.9556c-43.3532,0-70.6191-18.9999-97.3769-60.4295-17.2215,36.6207-36.6297,75.6005-62.1082,111.1414Z"/><path class="cls-1" d="M315.9694,492.6671c67.7624,0,125.1196-26.5294,170.4792-78.8509,35.8528-41.3562,59.7753-92.7678,82.9105-142.4869,20.6312-44.3384,40.1184-86.2183,65.1835-115.1157,23.2593-26.8165,47.6758-38.258,81.643-38.258V0c-67.8767,0-125.3256,26.5542-170.7503,78.9253-35.9157,41.4081-59.863,92.8719-83.0208,142.641-20.6103,44.2932-40.0776,86.1297-65.0927,114.9841-23.1888,26.7482-47.5181,38.161-81.3523,38.161v117.9556Z"/><polygon class="cls-1" points="775.1633 492.6671 831.5786 492.6671 1030.1931 246.3338 831.5786 0 775.1633 0 775.1633 117.9556 878.6722 246.3338 775.1633 374.7115 775.1633 492.6671"/><polygon class="cls-1" points="255.0298 492.6671 198.6146 492.6671 0 246.3338 198.6146 0 255.0298 0 255.0298 117.9556 151.5209 246.3338 255.0298 374.7115 255.0298 492.6671"/></g></svg>