<?xml version="1.0" encoding="UTF-8"?>
<svg xmlns="http://www.w3.org/2000/svg" viewBox="0 0 2000 482.3227">
  <defs>
    <style>
      .cls-1 {
        fill: #fff;
      }
    </style>
  </defs>
  <g id="Layer_1" data-name="Layer 1">
    <path class="cls-1" d="M1359.3614,203.885h-86.5177c-19.1239,0-34.6813-15.5583-34.6813-34.6822v-20.3128c0-19.1239,15.5574-34.6822,34.6813-34.6822h47.7474v-12.1366h-82.4287v-38.7704h86.5158c19.1239,0,34.6832,15.5583,34.6832,34.6822v105.902ZM1276.9327,165.1147h43.6583v-12.1366h-43.6583v12.1366Z"/>
    <path class="cls-1" d="M1566.9937,302.5669h-44.4861c-9.8332,0-17.8326-8.0003-17.8326-17.8336v-10.444c0-9.8332,7.9994-17.8336,17.8326-17.8336h24.551v-6.2404h-42.3836v-19.9351h44.4851c9.8332,0,17.8336,8.0003,17.8336,17.8336v54.4532ZM1524.6101,282.6318h22.4484v-6.2409h-22.4484v6.2409Z"/>
    <path class="cls-1" d="M1502.8117,203.885h-86.5177c-19.1239,0-34.6813-15.5583-34.6813-34.6822v-71.2197c0-19.1239,15.5574-34.6822,34.6813-34.6822h86.5177v38.7704h-82.4287v63.0435h82.4287v38.7704Z"/>
    <path class="cls-1" d="M1651.1417,97.9922v105.9011h-38.7704v-101.8303h-43.6552v101.8303h-38.7704V0h38.7704v63.2927h47.7455c19.1334,0,34.6801,15.5662,34.6801,34.6995Z"/>
    <rect class="cls-1" x="1672.2219" y="63.3008" width="38.7704" height="140.5842"/>
    <path class="cls-1" d="M1856.5497,203.885h-38.7704v-101.8139h-43.6583v101.8139h-38.7704V63.3008h86.5158c19.1239,0,34.6832,15.5583,34.6832,34.6822v105.902Z"/>
    <path class="cls-1" d="M2000,203.885h-86.5177c-19.1239,0-34.6813-15.5583-34.6813-34.6822v-71.2197c0-19.1239,15.5574-34.6822,34.6813-34.6822h51.8345c19.1239,0,34.6832,15.5583,34.6832,34.6822v20.3128c0,19.1239-15.5593,34.6822-34.6832,34.6822h-47.7455v12.1366h82.4287v38.7704ZM1917.5713,114.2078h43.6583v-12.1366h-43.6583v12.1366Z"/>
    <path class="cls-1" d="M1213.9673,34.6801v169.2132h-38.7704V38.7704h-28.0699v165.123h-38.7704V38.7704h-28.0503v165.123h-38.7704V0h137.751c19.1334,0,34.6804,15.5664,34.6804,34.6801Z"/>
    <rect class="cls-1" x="1596.1976" y="341.729" width="38.7704" height="140.5852"/>
    <rect class="cls-1" x="1244.4834" y="341.729" width="38.7704" height="140.5852"/>
    <path class="cls-1" d="M1911.1651,482.3142h-38.7704v-101.8148h-43.6583v101.8148h-38.7704v-140.5852h86.495c19.1353,0,34.704,15.5678,34.704,34.704v105.8811Z"/>
    <path class="cls-1" d="M1213.9673,313.1289v169.1938h-38.7704v-165.123h-28.0699v165.123h-38.7704v-165.123h-28.0503v165.123h-38.7704v-203.8933h137.7316c19.1334,0,34.6998,15.5664,34.6998,34.6995Z"/>
    <path class="cls-1" d="M1391.7464,482.3142h-86.495v-38.7704h82.4287v-12.1366h-47.7247c-19.1353,0-34.704-15.5678-34.704-34.704v-20.2702c0-19.1362,15.5687-34.704,34.704-34.704h86.495v38.7704h-82.4287v12.1375h47.7247c19.1353,0,34.704,15.5678,34.704,34.704v20.2693c0,19.1362-15.5687,34.704-34.704,34.704Z"/>
    <path class="cls-1" d="M1532.7527,482.3142h-86.495v-38.7704h82.4287v-12.1366h-47.7247c-19.1353,0-34.704-15.5678-34.704-34.704v-20.2702c0-19.1362,15.5687-34.704,34.704-34.704h86.495v38.7704h-82.4287v12.1375h47.7247c19.1353,0,34.704,15.5678,34.704,34.704v20.2693c0,19.1362-15.5687,34.704-34.704,34.704Z"/>
    <path class="cls-1" d="M1739.5003,482.3142h-51.791c-19.1353,0-34.704-15.5678-34.704-34.704v-71.1771c0-19.1362,15.5687-34.704,34.704-34.704h51.791c19.1353,0,34.704,15.5678,34.704,34.704v71.1771c0,19.1362-15.5687,34.704-34.704,34.704ZM1691.7756,443.5438h43.6583v-63.0444h-43.6583v63.0444Z"/>
    <path class="cls-1" d="M1441.5757,302.5669h-19.9351v-52.3516h-22.4484v52.3516h-19.9351v-72.2867h44.4744c9.8391,0,17.8443,8.0047,17.8443,17.8443v54.4425Z"/>
    <path class="cls-1" d="M1353.3082,302.5669h-26.6301c-9.8391,0-17.8443-8.0047-17.8443-17.8443v-36.5982c0-9.8396,8.0052-17.8443,17.8443-17.8443h26.6301c9.8391,0,17.8443,8.0047,17.8443,17.8443v36.5982c0,9.8396-8.0052,17.8443-17.8443,17.8443ZM1328.7689,282.6318h22.4484v-32.4165h-22.4484v32.4165Z"/>
    <rect class="cls-1" x="1244.4832" y="278.4326" width="38.7704" height="38.7704"/>
    <rect class="cls-1" x="1596.1978" y="278.4326" width="38.7704" height="38.7704"/>
    <rect class="cls-1" x="1672.2214" y=".0035" width="38.7704" height="38.7704"/>
  </g>
  <g id="Layer_2" data-name="Layer 2">
    <path class="cls-1" d="M701.1512.0014v115.4789c-44.3528,0-71.5525,20.191-98.8677,64.3661-16.9132-36.1537-35.8606-74.9635-60.813-110.5044C584.5353,23.3193,638.1975.0014,701.1512.0014Z"/>
    <path class="cls-1" d="M467.875,416.4894c-42.4252,43.6954-94.8793,65.8319-156.1364,65.8319v-115.4789c42.443,0,69.1364-18.601,95.3323-59.1607,16.8599,35.8517,35.8606,74.0131,60.8041,108.8078Z"/>
    <path class="cls-1" d="M699.2274,482.3227c-66.3397,0-122.4925-25.9723-166.8997-77.1953-35.1-40.4879-58.5202-90.8199-81.1697-139.4951-20.198-43.4074-39.276-84.408-63.8149-112.6986-22.7709-26.2534-46.6748-37.4547-79.9287-37.4547V0C373.8661,0,430.1087,25.9966,474.5796,77.2682c35.1616,40.5386,58.6061,90.9219,81.2777,139.646,20.1776,43.3631,39.2361,84.3212,63.7259,112.5698,22.7019,26.1866,46.5203,37.3598,79.6442,37.3598v115.4789Z"/>
    <polygon class="cls-1" points="249.675 482.3227 194.4443 482.3227 0 241.1616 194.4443 0 249.675 0 249.675 115.4789 148.3395 241.1616 249.675 366.8438 249.675 482.3227"/>
    <polygon class="cls-1" points="758.8874 482.3227 814.1182 482.3227 1008.5625 241.1616 814.1182 0 758.8874 0 758.8875 115.4789 860.223 241.1616 758.8875 366.8438 758.8874 482.3227"/>
  </g>
</svg>