<?xml version="1.0" encoding="UTF-8"?>
<svg id="Layer_1" data-name="Layer 1" xmlns="http://www.w3.org/2000/svg" viewBox="0 0 1000 478.2279">
  <defs>
    <style>
      .cls-1 {
        fill: #fff;
      }
    </style>
  </defs>
  <path class="cls-1" d="M304.8014.0014v114.4985c43.9762,0,70.945,20.0196,98.0283,63.8197,16.7696-35.8468,35.5562-74.3271,60.2967-109.5663C420.4273,23.1213,367.2207.0014,304.8014.0014Z"/>
  <path class="cls-1" d="M536.0972,412.9535c42.065,43.3245,94.0737,65.273,154.8108,65.273v-114.4985c-42.0826,0-68.5494-18.4431-94.5229-58.6585-16.7168,35.5474-35.5562,73.3848-60.2879,107.884Z"/>
  <path class="cls-1" d="M306.7089,478.2279c65.7764,0,121.4526-25.7518,165.4827-76.5399,34.802-40.1442,58.0234-90.0489,80.4805-138.3108,20.0265-43.0389,38.9426-83.6914,63.2731-111.7419,22.5776-26.0305,46.2785-37.1368,79.2501-37.1368V0c-65.8874,0-121.6525,25.7759-165.7459,76.6122-34.863,40.1945-58.1085,90.15-80.5876,138.4605-20.0063,42.995-38.903,83.6053-63.1849,111.6141-22.5092,25.9643-46.1254,37.0426-78.968,37.0426v114.4985Z"/>
  <polygon class="cls-1" points="752.4447 478.2279 807.2065 478.2279 1000 239.1142 807.2065 0 752.4447 0 752.4447 114.4985 852.9199 239.1142 752.4447 363.7294 752.4447 478.2279"/>
  <polygon class="cls-1" points="247.5553 478.2279 192.7935 478.2279 0 239.1142 192.7935 0 247.5553 0 247.5553 114.4985 147.0801 239.1142 247.5553 363.7294 247.5553 478.2279"/>
</svg>