<?xml version="1.0" encoding="UTF-8"?>
<svg id="Layer_2" data-name="Layer 2" xmlns="http://www.w3.org/2000/svg" viewBox="0 0 1038.1148 1002.5801">
  <defs>
    <style>
      .cls-1 {
        fill: #fff;
      }
    </style>
  </defs>
  <path class="cls-1" d="M321.9259.0014v117.9556c45.304,0,73.0871,20.6241,100.9881,65.7466,17.2759-36.9291,36.6297-76.5713,62.1173-112.8744C441.0429,23.8194,386.2298.0014,321.9259.0014Z"/>
  <path class="cls-1" d="M560.2053,425.4219c43.3351,44.6326,96.9141,67.2438,159.4851,67.2438v-117.9556c-43.3532,0-70.6191-18.9999-97.3769-60.4295-17.2215,36.6207-36.6297,75.6005-62.1082,111.1414Z"/>
  <path class="cls-1" d="M323.891,492.6671c67.7624,0,125.1196-26.5294,170.4792-78.8509,35.8528-41.3562,59.7753-92.7678,82.9105-142.4869,20.6312-44.3384,40.1184-86.2183,65.1835-115.1157,23.2593-26.8165,47.6758-38.258,81.643-38.258V0c-67.8767,0-125.3256,26.5542-170.7503,78.9253-35.9157,41.4081-59.863,92.8719-83.0208,142.641-20.6103,44.2932-40.0776,86.1297-65.0927,114.9841-23.1888,26.7482-47.5181,38.161-81.3523,38.161v117.9556Z"/>
  <polygon class="cls-1" points="783.0849 492.6671 839.5002 492.6671 1038.1148 246.3338 839.5002 0 783.0849 0 783.0849 117.9556 886.5938 246.3338 783.0849 374.7115 783.0849 492.6671"/>
  <polygon class="cls-1" points="262.9514 492.6671 206.5362 492.6671 7.9216 246.3338 206.5362 0 262.9514 0 262.9514 117.9556 159.4425 246.3338 262.9514 374.7115 262.9514 492.6671"/>
  <path class="cls-1" d="M349.3002,732.9621h-90.2378c-19.9462,0-36.1725-16.2273-36.1725-36.1735v-21.1862c0-19.9462,16.2263-36.1735,36.1725-36.1735h49.8004v-12.6584h-85.9729v-40.4374h90.2358c19.9462,0,36.1745,16.2273,36.1745,36.1735v110.4555ZM263.3273,692.5247h45.5355v-12.6584h-45.5355v12.6584Z"/>
  <path class="cls-1" d="M593.2553,832.1535h-46.3989c-10.256,0-18.5994-8.3443-18.5994-18.6004v-10.8931c0-10.256,8.3433-18.6004,18.5994-18.6004h25.6066v-6.5088h-44.2059v-20.7923h46.3979c10.256,0,18.6004,8.3443,18.6004,18.6004v56.7945ZM549.0494,811.3612h23.4137v-6.5093h-23.4137v6.5093Z"/>
  <path class="cls-1" d="M500.6342,732.9621h-90.2378c-19.9462,0-36.1725-16.2273-36.1725-36.1735v-74.282c0-19.9462,16.2263-36.1735,36.1725-36.1735h90.2378v40.4374h-85.9729v65.7542h85.9729v40.4374Z"/>
  <path class="cls-1" d="M651.9649,622.5161v110.4546h-40.4374v-106.2087h-45.5323v106.2087h-40.4374v-212.6602h40.4374v66.0141h49.7984c19.9561,0,36.1713,16.2355,36.1713,36.1915Z"/>
  <rect class="cls-1" x="676.8886" y="586.3331" width="40.4374" height="146.629"/>
  <path class="cls-1" d="M868.66,732.9621h-40.4374v-106.1916h-45.5355v106.1916h-40.4374v-146.629h90.2358c19.9462,0,36.1745,16.2273,36.1745,36.1735v110.4555Z"/>
  <path class="cls-1" d="M1019.994,732.9621h-90.2378c-19.9462,0-36.1725-16.2273-36.1725-36.1735v-74.282c0-19.9462,16.2263-36.1735,36.1725-36.1735h54.0633c19.9462,0,36.1745,16.2273,36.1745,36.1735v21.1862c0,19.9462-16.2283,36.1735-36.1745,36.1735h-49.7984v12.6584h85.9729v40.4374ZM934.0211,639.4289h45.5355v-12.6584h-45.5355v12.6584Z"/>
  <path class="cls-1" d="M197.9662,556.4818v176.489h-40.4374v-172.2228h-29.2769v172.2228h-40.4374v-172.2228h-29.2564v172.2228H18.1208v-212.6602h143.6739c19.9561,0,36.1715,16.2357,36.1715,36.1713Z"/>
  <rect class="cls-1" x="620.2005" y="855.9413" width="40.4374" height="146.63"/>
  <rect class="cls-1" x="256.6127" y="855.9413" width="40.4374" height="146.63"/>
  <path class="cls-1" d="M960.345,1002.5712h-40.4374v-106.1926h-45.5355v106.1926h-40.4374v-146.63h90.2141c19.9581,0,36.1962,16.2372,36.1962,36.1962v110.4338Z"/>
  <path class="cls-1" d="M233.1694,826.1114v176.4687h-40.4374v-172.2228h-29.2769v172.2228h-40.4374v-172.2228h-29.2564v172.2228h-40.4374v-212.6602h143.6537c19.9561,0,36.1918,16.2357,36.1918,36.1915Z"/>
  <path class="cls-1" d="M410.7074,1002.5712h-90.2141v-40.4374h85.9729v-12.6584h-49.7767c-19.9581,0-36.1962-16.2372-36.1962-36.1962v-21.1418c0-19.9591,16.2381-36.1962,36.1962-36.1962h90.2141v40.4374h-85.9729v12.6594h49.7767c19.9581,0,36.1962,16.2372,36.1962,36.1962v21.1408c0,19.9591-16.2381,36.1962-36.1962,36.1962Z"/>
  <path class="cls-1" d="M560.561,1002.5712h-90.2141v-40.4374h85.9729v-12.6584h-49.7767c-19.9581,0-36.1962-16.2372-36.1962-36.1962v-21.1418c0-19.9591,16.2381-36.1962,36.1962-36.1962h90.2141v40.4374h-85.9729v12.6594h49.7767c19.9581,0,36.1962,16.2372,36.1962,36.1962v21.1408c0,19.9591-16.2381,36.1962-36.1962,36.1962Z"/>
  <path class="cls-1" d="M774.2952,1002.5712h-54.0179c-19.9581,0-36.1962-16.2372-36.1962-36.1962v-74.2376c0-19.9591,16.2381-36.1962,36.1962-36.1962h54.0179c19.9581,0,36.1962,16.2372,36.1962,36.1962v74.2376c0,19.9591-16.2381,36.1962-36.1962,36.1962ZM724.5185,962.1338h45.5355v-65.7552h-45.5355v65.7552Z"/>
  <path class="cls-1" d="M462.4446,832.1535h-20.7923v-54.6026h-23.4137v54.6026h-20.7923v-75.3949h46.3867c10.2621,0,18.6115,8.3489,18.6115,18.6115v56.7834Z"/>
  <path class="cls-1" d="M370.3819,832.1535h-27.7752c-10.2621,0-18.6115-8.3489-18.6115-18.6115v-38.1718c0-10.2626,8.3494-18.6115,18.6115-18.6115h27.7752c10.2621,0,18.6115,8.3489,18.6115,18.6115v38.1718c0,10.2626-8.3494,18.6115-18.6115,18.6115ZM344.7875,811.3612h23.4137v-33.8103h-23.4137v33.8103Z"/>
  <rect class="cls-1" x="256.6127" y="789.9232" width="40.4374" height="40.4374"/>
  <rect class="cls-1" x="620.2005" y="791.0483" width="40.4374" height="40.4374"/>
  <rect class="cls-1" x="676.8886" y="520.3105" width="40.4374" height="40.4374"/>
</svg>