<?xml version="1.0" encoding="UTF-8"?><svg id="Layer_1" xmlns="http://www.w3.org/2000/svg" xmlns:xlink="http://www.w3.org/1999/xlink" viewBox="0 0 512 512"><defs><style>.cls-1{fill:#2085b9;}.cls-2{fill:#fff;}.cls-3{fill:#85e98c;}.cls-4{fill:#8548b4;}.cls-5{fill:#e13353;}.cls-6{fill:#fedf43;}.cls-7{fill:#ff9037;}.cls-8{clip-path:url(#clippath);}</style><clipPath id="clippath"><path class="cls-2" d="M221.35,460.17c7.2,12.29,20.29,19.79,34.48,19.79,14.19,0,27.29-7.5,34.48-19.79L506.19,92.36c7.3-12.39,7.3-27.69.2-40.08s-20.39-20.09-34.68-20.09H39.94c-14.29,0-27.59,7.7-34.68,20.09-7.1,12.39-7,27.79.2,40.08l215.89,367.8h0Z"/></clipPath></defs><path class="cls-2" d="M221.35,460.17c7.2,12.29,20.29,19.79,34.48,19.79,14.19,0,27.29-7.5,34.48-19.79L506.19,92.36c7.3-12.39,7.3-27.69.2-40.08s-20.39-20.09-34.68-20.09H39.94c-14.29,0-27.59,7.7-34.68,20.09-7.1,12.39-7,27.79.2,40.08l215.89,367.8h0Z"/><g class="cls-8"><rect class="cls-2" x="-577.74" y="-1078.22" width="2983.04" height="2668.6"/><path class="cls-4" d="M-105.55,234.22l1869.83-839.13v1669.35L-105.55,234.22h0Z"/><path class="cls-1" d="M-105.55,234.22l1869.83-839.13V786.22L-105.55,234.22h0Z"/><path class="cls-3" d="M-105.55,234.22l1869.83-839.13V508L-105.55,234.22h0Z"/><path class="cls-6" d="M-105.55,234.22l1869.83-839.13V229.77l-1869.83,4.45h0Z"/><path class="cls-7" d="M-105.55,234.22l1869.83-839.13V-48.45L-105.55,234.22h0Z"/><path class="cls-5" d="M-105.55,234.22l1869.83-839.13v278.23L-105.55,234.22h0Z"/></g></svg>