<?xml version="1.0" encoding="UTF-8"?><svg id="Layer_3" xmlns="http://www.w3.org/2000/svg" viewBox="0 0 973.913 640.1104"><defs><style>.cls-1{fill:#fff;}</style></defs><path class="cls-1" d="M94.2613,298.6195V62.9663h-31.295v235.6532H0V0h188.5226c34.6882,0,62.9663,28.2788,62.9663,62.9663v235.6532h-62.9663V62.9663h-31.295v235.6532h-62.9663Z"/><path class="cls-1" d="M471.3117,141.3919v94.2613c0,34.6882-28.2788,62.9663-62.9663,62.9663h-62.5899c-34.6875,0-62.9663-28.2781-62.9663-62.9663v-94.2613c0-34.6882,28.2788-62.5893,62.9663-62.5893h62.5899c34.6875,0,62.9663,27.9011,62.9663,62.5893ZM345.7554,141.3919v94.2613h62.5899v-94.2613h-62.5899Z"/><path class="cls-1" d="M502.608,78.8026h125.5563c34.6875,0,62.9663,27.9011,62.9663,62.5893v157.2276h-125.5563c-34.6875,0-62.9663-28.2781-62.9663-62.9663v-15.4586c0-34.6882,28.2788-62.967,62.9663-62.967h62.5899v-15.8357h-125.5563v-62.5893ZM565.5743,235.6532h62.5899v-15.4586h-62.5899v15.4586Z"/><path class="cls-1" d="M816.6855,298.6195V62.9663h-31.295v235.6532h-62.9663V0h188.5226c34.6875,0,62.9663,28.2788,62.9663,62.9663v235.6532h-62.9663V62.9663h-31.295v235.6532h-62.9663Z"/><path class="cls-1" d="M251.4955,404.4578h-125.5563v55.0481h62.5899c34.6882,0,62.9663,28.2788,62.9663,62.9663v54.6718c0,34.6875-28.2781,62.9663-62.9663,62.9663H62.9729v-62.9663h125.5563v-54.6718h-62.5899c-34.6875,0-62.9663-28.2788-62.9663-62.9663v-55.0481c0-34.6888,28.2788-62.967,62.9663-62.967h125.5563v62.967Z"/><path class="cls-1" d="M282.7891,420.2928h125.5563c34.6875,0,62.9663,27.9024,62.9663,62.5899v157.2276h-125.5563c-34.6875,0-62.9663-28.2788-62.9663-62.9663v-15.4586c0-34.6888,28.2788-62.9663,62.9663-62.9663h62.5899v-15.8363h-125.5563v-62.5899ZM345.7554,577.144h62.5899v-15.4586h-62.5899v15.4586Z"/><path class="cls-1" d="M628.1616,640.1104v-157.2276h-62.5899v157.2276h-62.9663v-219.8175h125.5563c34.6875,0,62.9663,27.9024,62.9663,62.5899v157.2276h-62.9663Z"/><path class="cls-1" d="M910.9441,482.8828h-125.5563v15.8363h62.5899c34.6875,0,62.9663,28.2775,62.9663,62.9663v15.4586c0,34.6875-28.2788,62.9663-62.9663,62.9663h-125.5563v-62.9663h125.5563v-15.4586h-62.5899c-34.6875,0-62.9663-28.2788-62.9663-62.9663v-15.8363c0-34.6875,28.2788-62.5899,62.9663-62.5899h125.5563v62.5899Z"/></svg>