<?xml version="1.0" encoding="UTF-8"?>
<svg id="Layer_1" xmlns="http://www.w3.org/2000/svg" viewBox="0 0 450.78 266.32">
  <defs>
    <style>
      .cls-1 {
        fill: #fff;
      }
    </style>
  </defs>
  <polygon class="cls-1" points="106.93 18.61 17.74 107.8 106.93 196.98 106.93 214.73 0 107.8 106.93 .87 106.93 18.61"/>
  <polygon class="cls-1" points="343.85 196.97 433.03 107.79 343.85 18.61 343.85 .86 450.78 107.79 343.85 214.72 343.85 196.97"/>
  <path class="cls-1" d="M332.34,213.75c-.12,0-.24,0-.36,0-14.01,0-27.38-3.11-39.75-9.25-11.05-5.48-21.62-13.55-31.42-23.99-12-12.77-21.93-28.06-30.15-42.9,3.56-6.69,6.77-13.2,9.66-19.29,20.67,40.53,48.09,77.87,91.67,77.87.1,0,.19,0,.29,0l.07,17.57Z"/>
  <path class="cls-1" d="M220.78,76.76c-1.45,3.13-2.89,6.29-4.34,9.48-1.73,3.79-3.5,7.69-5.32,11.6-.26-.56-.51-1.12-.77-1.68-20.78-45.63-35.79-78.59-91.88-78.59V0c30.85,0,53.61,8.71,71.61,27.42,12.93,13.43,21.99,30.69,30.69,49.34Z"/>
  <path class="cls-1" d="M118.8,214.76c-.12,0-.24,0-.36,0l.07-17.57c.1,0,.19,0,.29,0,48.67,0,77.17-46.56,98.65-92.13,2.41-5.11,4.74-10.23,6.99-15.18,10.58-23.22,20.57-45.16,36.26-61.46,18-18.7,40.76-27.42,71.61-27.42v17.57c-56.09,0-71.1,32.97-91.88,78.59-2.28,5-4.63,10.17-7.09,15.38-10.04,21.3-24.03,48.39-43.36,68.98-9.8,10.44-20.37,18.51-31.42,23.99-12.37,6.13-25.74,9.24-39.75,9.24Z"/>
  <g>
    <path class="cls-1" d="M.08,265.9v-31.02h7.78l3.15,13.26,3.15-13.26h7.86v31.02h-5.82v-11.9c0-3.12.13-6.11.4-8.99.27-2.88.55-5.4.83-7.59l-3.91,15.3h-5.1l-3.82-14.92c.28,1.84.57,4.19.87,7.03s.45,5.9.45,9.16v11.9H.08Z"/>
    <path class="cls-1" d="M33.52,266.32c-2.32,0-4.17-.67-5.52-2.02s-2.04-3.11-2.04-5.29c0-2.35.84-4.21,2.51-5.57,1.67-1.36,4.02-2.04,7.06-2.04h4.59v-1.49c0-.88-.3-1.57-.91-2.06-.61-.5-1.48-.74-2.61-.74s-1.93.21-2.57.64c-.64.42-.98,1.05-1.04,1.87h-6.03c.08-2.29.99-4.12,2.72-5.48,1.73-1.36,4.07-2.04,7.01-2.04s5.5.71,7.22,2.12c1.73,1.42,2.59,3.4,2.59,5.95v15.72h-6.16v-4.04c-.28,1.39-1.03,2.48-2.23,3.27-1.2.79-2.73,1.19-4.57,1.19ZM35.78,261.22c1.33,0,2.39-.33,3.17-1,.78-.67,1.17-1.54,1.17-2.61v-2.38h-4.46c-1.13,0-2,.28-2.61.83-.61.55-.91,1.27-.91,2.15s.32,1.6.96,2.17c.64.57,1.54.85,2.7.85Z"/>
    <path class="cls-1" d="M62.42,266.32c-2.07,0-3.88-.39-5.44-1.17-1.56-.78-2.76-1.87-3.61-3.27-.85-1.4-1.27-3.04-1.27-4.91v-5.53c0-1.9.42-3.54,1.27-4.93.85-1.39,2.05-2.47,3.61-3.25,1.56-.78,3.37-1.17,5.44-1.17,3.09,0,5.55.78,7.4,2.34,1.84,1.56,2.82,3.68,2.93,6.38h-6.21c-.08-.99-.5-1.77-1.25-2.34-.75-.57-1.71-.85-2.87-.85-1.27,0-2.25.33-2.93.98-.68.65-1.02,1.6-1.02,2.85v5.53c0,1.22.34,2.16,1.02,2.83.68.67,1.66,1,2.93,1,1.16,0,2.12-.28,2.87-.83.75-.55,1.17-1.34,1.25-2.36h6.21c-.11,2.69-1.09,4.82-2.93,6.38-1.84,1.56-4.31,2.34-7.4,2.34Z"/>
    <path class="cls-1" d="M77.6,265.9v-31.02h6.37v7.65l-.21,4.21c.37-1.42,1.11-2.54,2.23-3.38,1.12-.84,2.47-1.25,4.06-1.25,2.27,0,4.09.79,5.46,2.38,1.37,1.59,2.06,3.7,2.06,6.33v15.09h-6.38v-14.45c0-1.22-.32-2.16-.96-2.83-.64-.67-1.52-1-2.66-1s-2.02.33-2.66,1c-.64.67-.96,1.61-.96,2.83v14.45h-6.37Z"/>
    <path class="cls-1" d="M103.26,265.9v-5.74h7.73v-11.9h-6.88v-5.74h13.26v17.64h6.71v5.74h-20.82ZM113.89,238.83c-1.16,0-2.09-.3-2.78-.89s-1.04-1.4-1.04-2.42.35-1.83,1.04-2.42,1.62-.89,2.78-.89,2.09.3,2.78.89c.69.59,1.04,1.4,1.04,2.42s-.35,1.83-1.04,2.42c-.69.59-1.62.89-2.78.89Z"/>
    <path class="cls-1" d="M128.59,265.9v-23.38h6.16v4.25c.34-1.42,1.07-2.55,2.19-3.4,1.12-.85,2.49-1.28,4.1-1.28,2.27,0,4.09.79,5.46,2.38,1.37,1.59,2.06,3.7,2.06,6.33v15.09h-6.38v-14.45c0-1.22-.32-2.16-.96-2.83-.64-.67-1.52-1-2.66-1s-2.02.33-2.66,1c-.64.67-.96,1.61-.96,2.83v14.45h-6.37Z"/>
    <path class="cls-1" d="M164.08,266.32c-2.07,0-3.88-.39-5.42-1.17-1.54-.78-2.73-1.87-3.57-3.27-.84-1.4-1.25-3.04-1.25-4.91v-5.53c0-1.87.42-3.51,1.25-4.91.84-1.4,2.03-2.49,3.57-3.27,1.54-.78,3.35-1.17,5.42-1.17s3.86.39,5.38,1.17c1.52.78,2.69,1.87,3.53,3.27.84,1.4,1.25,3.04,1.25,4.91v4.33h-14.32v1.19c0,1.47.35,2.55,1.04,3.23.69.68,1.74,1.02,3.12,1.02.91,0,1.7-.14,2.38-.42s1.08-.71,1.19-1.28h6.25c-.45,2.04-1.57,3.68-3.36,4.93-1.79,1.25-3.94,1.87-6.46,1.87ZM159.92,251.45v.55l8.24-.08v-.55c0-1.44-.33-2.56-1-3.36-.67-.79-1.69-1.19-3.08-1.19s-2.43.41-3.12,1.23c-.69.82-1.04,1.96-1.04,3.4Z"/>
    <path class="cls-1" d="M200.56,266.16c-1.29,0-2.4-.24-3.36-.73-.95-.48-1.69-1.16-2.21-2.03-.52-.87-.78-1.89-.78-3.05v-3.43c0-1.16.26-2.18.78-3.05.52-.87,1.25-1.55,2.21-2.04.95-.48,2.07-.73,3.36-.73s2.43.24,3.37.73c.94.49,1.67,1.16,2.19,2.04.52.87.78,1.89.78,3.05v3.43c0,1.16-.26,2.18-.78,3.05-.52.87-1.25,1.55-2.19,2.03-.94.48-2.06.73-3.37.73ZM200.56,262.73c.77,0,1.36-.21,1.77-.62.4-.41.61-1,.61-1.76v-3.43c0-.77-.2-1.36-.61-1.77-.41-.41-1-.61-1.77-.61s-1.34.2-1.76.61c-.41.41-.62,1-.62,1.77v3.43c0,.76.21,1.34.62,1.76.41.41,1,.62,1.76.62Z"/>
    <path class="cls-1" d="M210.23,265.9v-14.53h3.83v2.64c.21-.88.66-1.58,1.36-2.11.7-.53,1.55-.79,2.55-.79,1.41,0,2.54.49,3.39,1.48.85.99,1.28,2.3,1.28,3.94v9.38h-3.96v-8.98c0-.76-.2-1.34-.59-1.76-.4-.41-.95-.62-1.65-.62s-1.25.21-1.65.62c-.4.41-.59,1-.59,1.76v8.98h-3.96Z"/>
    <path class="cls-1" d="M246.24,266.16c-1.44,0-2.59-.42-3.43-1.25-.84-.84-1.27-1.93-1.27-3.29,0-1.46.52-2.62,1.56-3.46,1.04-.85,2.5-1.27,4.39-1.27h2.85v-.92c0-.55-.19-.97-.57-1.28-.38-.31-.92-.46-1.62-.46s-1.2.13-1.6.4c-.4.26-.61.65-.65,1.16h-3.75c.05-1.43.62-2.56,1.69-3.41s2.53-1.27,4.36-1.27,3.42.44,4.49,1.32c1.07.88,1.61,2.11,1.61,3.7v9.77h-3.83v-2.51c-.18.86-.64,1.54-1.39,2.03s-1.7.74-2.84.74ZM247.64,262.99c.83,0,1.48-.21,1.97-.62.48-.41.73-.96.73-1.62v-1.48h-2.77c-.71,0-1.25.17-1.62.51-.38.34-.57.79-.57,1.33s.2,1,.59,1.35c.4.35.96.53,1.68.53Z"/>
    <path class="cls-1" d="M273.68,265.9v-31.02h7.78l3.14,13.26,3.15-13.26h7.86v31.02h-5.82v-11.9c0-3.12.13-6.11.4-8.99.27-2.88.54-5.4.83-7.59l-3.91,15.3h-5.1l-3.83-14.92c.28,1.84.57,4.19.87,7.03s.45,5.9.45,9.16v11.9h-5.82Z"/>
    <path class="cls-1" d="M300.37,265.9v-5.74h7.74v-11.9h-6.88v-5.74h13.26v17.64h6.71v5.74h-20.83ZM310.99,238.83c-1.16,0-2.09-.3-2.78-.89-.7-.59-1.04-1.4-1.04-2.42s.35-1.83,1.04-2.42c.69-.59,1.62-.89,2.78-.89s2.09.3,2.78.89c.69.59,1.04,1.4,1.04,2.42s-.35,1.83-1.04,2.42c-.7.59-1.62.89-2.78.89Z"/>
    <path class="cls-1" d="M334.66,266.32c-1.93,0-3.61-.3-5.06-.91-1.45-.61-2.57-1.45-3.38-2.53-.81-1.08-1.21-2.34-1.21-3.78h6.25c0,.79.3,1.39.89,1.79.6.4,1.43.59,2.51.59h1.87c1.16,0,2.06-.2,2.7-.59s.96-.96.96-1.7-.25-1.23-.76-1.55c-.51-.33-1.29-.54-2.34-.66l-5.36-.64c-2.07-.25-3.66-1.03-4.76-2.32-1.11-1.29-1.66-2.9-1.66-4.82,0-4.73,3.03-7.1,9.09-7.1h2c2.86,0,5.14.62,6.84,1.87,1.7,1.25,2.55,2.92,2.55,5.01h-6.25c0-.68-.28-1.2-.83-1.57s-1.33-.55-2.32-.55h-2c-.99,0-1.74.18-2.25.55s-.76.88-.76,1.53.25,1.09.74,1.32c.5.23,1.2.4,2.1.51l5.1.64c2.29.28,4.02,1.09,5.18,2.42,1.16,1.33,1.74,3.09,1.74,5.27,0,2.29-.82,4.07-2.46,5.33-1.64,1.26-4.07,1.89-7.27,1.89h-1.87Z"/>
    <path class="cls-1" d="M360.16,266.32c-1.93,0-3.61-.3-5.06-.91-1.45-.61-2.57-1.45-3.38-2.53-.81-1.08-1.21-2.34-1.21-3.78h6.25c0,.79.3,1.39.89,1.79.6.4,1.43.59,2.51.59h1.87c1.16,0,2.06-.2,2.7-.59s.96-.96.96-1.7-.25-1.23-.76-1.55c-.51-.33-1.29-.54-2.34-.66l-5.36-.64c-2.07-.25-3.66-1.03-4.76-2.32-1.11-1.29-1.66-2.9-1.66-4.82,0-4.73,3.03-7.1,9.09-7.1h2c2.86,0,5.14.62,6.84,1.87,1.7,1.25,2.55,2.92,2.55,5.01h-6.25c0-.68-.28-1.2-.83-1.57s-1.33-.55-2.32-.55h-2c-.99,0-1.74.18-2.25.55s-.76.88-.76,1.53.25,1.09.74,1.32c.5.23,1.2.4,2.1.51l5.1.64c2.29.28,4.02,1.09,5.18,2.42,1.16,1.33,1.74,3.09,1.74,5.27,0,2.29-.82,4.07-2.46,5.33-1.64,1.26-4.07,1.89-7.27,1.89h-1.87Z"/>
    <path class="cls-1" d="M376.86,265.9v-5.74h7.74v-11.9h-6.88v-5.74h13.26v17.64h6.71v5.74h-20.83ZM387.49,238.83c-1.16,0-2.09-.3-2.78-.89-.7-.59-1.04-1.4-1.04-2.42s.35-1.83,1.04-2.42c.69-.59,1.62-.89,2.78-.89s2.09.3,2.78.89c.69.59,1.04,1.4,1.04,2.42s-.35,1.83-1.04,2.42c-.7.59-1.62.89-2.78.89Z"/>
    <path class="cls-1" d="M412.14,266.32c-2.07,0-3.87-.39-5.4-1.17-1.53-.78-2.71-1.87-3.55-3.27-.84-1.4-1.25-3.04-1.25-4.91v-5.53c0-1.87.42-3.51,1.25-4.91.83-1.4,2.02-2.49,3.55-3.27s3.33-1.17,5.4-1.17,3.9.39,5.42,1.17c1.51.78,2.69,1.87,3.53,3.27.83,1.4,1.25,3.04,1.25,4.91v5.53c0,1.87-.42,3.51-1.25,4.91-.84,1.4-2.01,2.49-3.53,3.27-1.52.78-3.32,1.17-5.42,1.17ZM412.14,260.8c1.25,0,2.2-.33,2.85-1,.65-.67.98-1.61.98-2.83v-5.53c0-1.25-.33-2.2-.98-2.85s-1.6-.98-2.85-.98-2.16.33-2.83.98c-.67.65-1,1.6-1,2.85v5.53c0,1.22.33,2.16,1,2.83.67.67,1.61,1,2.83,1Z"/>
    <path class="cls-1" d="M427.69,265.9v-23.38h6.16v4.25c.34-1.42,1.07-2.55,2.19-3.4,1.12-.85,2.49-1.28,4.1-1.28,2.27,0,4.09.79,5.46,2.38,1.37,1.59,2.06,3.7,2.06,6.33v15.09h-6.37v-14.45c0-1.22-.32-2.16-.96-2.83-.64-.67-1.52-1-2.66-1s-2.02.33-2.66,1c-.64.67-.96,1.61-.96,2.83v14.45h-6.38Z"/>
  </g>
</svg>